RBDS08runT25_grf
version=1
nRows=30
nColumns=19
inDegrees=no
endheader
time	ground_force_r_vx	ground_force_r_vy	ground_force_r_vz	ground_force_r_px	ground_force_r_py	ground_force_r_pz	ground_force_r_mx	ground_force_r_my	ground_force_r_mz	ground_force_l_vx	ground_force_l_vy	ground_force_l_vz	ground_force_l_px	ground_force_l_py	ground_force_l_pz	ground_force_l_mx	ground_force_l_my	ground_force_l_mz
      7.49900000	      0.00000000	      0.00000000	      0.00000000	      0.00000000	      0.00000000	      0.00000000	      0.00000000	      0.00000000	      0.00000000	     99.91325947	    290.79919179	    -14.61237636	      1.78529785	      0.00000000	      0.98251377	      0.00000000	     -1.54417520	     -0.00000000
      7.50000000	      0.00000000	      0.00000000	      0.00000000	      0.00000000	      0.00000000	      0.00000000	      0.00000000	      0.00000000	      0.00000000	     98.44144321	    282.41451320	    -14.41684718	      1.78374997	      0.00000000	      0.98267762	      0.00000000	     -1.61494281	     -0.00000000
      7.50100000	      0.00000000	      0.00000000	      0.00000000	      0.00000000	      0.00000000	      0.00000000	      0.00000000	      0.00000000	      0.00000000	     96.90158564	    274.30307891	    -14.14647542	      1.78230500	      0.00000000	      0.98283591	      0.00000000	     -1.67999195	     -0.00000000
      7.50200000	      0.00000000	      0.00000000	      0.00000000	      0.00000000	      0.00000000	      0.00000000	      0.00000000	      0.00000000	      0.00000000	     95.36172808	    266.19164461	    -13.87610366	      1.78086002	      0.00000000	      0.98299421	      0.00000000	     -1.74504109	     -0.00000000
      7.50300000	      0.00000000	      0.00000000	      0.00000000	      0.00000000	      0.00000000	      0.00000000	      0.00000000	      0.00000000	      0.00000000	     93.82187051	    258.08021032	    -13.60573190	      1.77941504	      0.00000000	      0.98315251	      0.00000000	     -1.81009023	     -0.00000000
      7.50400000	      0.00000000	      0.00000000	      0.00000000	      0.00000000	      0.00000000	      0.00000000	      0.00000000	      0.00000000	      0.00000000	     92.25268533	    250.17269447	    -13.29365246	      1.77804163	      0.00000000	      0.98330733	      0.00000000	     -1.87205673	      0.00000000
      7.50500000	      0.00000000	      0.00000000	      0.00000000	      0.00000000	      0.00000000	      0.00000000	      0.00000000	      0.00000000	      0.00000000	     90.66883634	    242.36713784	    -12.96071916	      1.77670400	      0.00000000	      0.98346042	      0.00000000	     -1.93248190	      0.00000000
      7.50600000	      0.00000000	      0.00000000	      0.00000000	      0.00000000	      0.00000000	      0.00000000	      0.00000000	      0.00000000	      0.00000000	     89.08498734	    234.56158122	    -12.62778587	      1.77536636	      0.00000000	      0.98361350	      0.00000000	     -1.99290708	      0.00000000
      7.50700000	      0.00000000	      0.00000000	      0.00000000	      0.00000000	      0.00000000	      0.00000000	      0.00000000	      0.00000000	      0.00000000	     87.49453507	    226.86901649	    -12.27820536	      1.77406556	      0.00000000	      0.98376489	      0.00000000	     -2.05212264	      0.00000000
      7.50800000	      0.00000000	      0.00000000	      0.00000000	      0.00000000	      0.00000000	      0.00000000	      0.00000000	      0.00000000	      0.00000000	     85.89087623	    219.40243554	    -11.89533042	      1.77283842	      0.00000000	      0.98391288	      0.00000000	     -2.10891899	      0.00000000
      7.50900000	      0.00000000	      0.00000000	      0.00000000	      0.00000000	      0.00000000	      0.00000000	      0.00000000	      0.00000000	      0.00000000	     84.28721739	    211.93585460	    -11.51245548	      1.77161128	      0.00000000	      0.98406088	      0.00000000	     -2.16571533	      0.00000000
      7.51000000	      0.00000000	      0.00000000	      0.00000000	      0.00000000	      0.00000000	      0.00000000	      0.00000000	      0.00000000	      0.00000000	     82.68355855	    204.46927366	    -11.12958054	      1.77038415	      0.00000000	      0.98420888	      0.00000000	     -2.22251168	      0.00000000
      7.51100000	      0.00000000	      0.00000000	      0.00000000	      0.00000000	      0.00000000	      0.00000000	      0.00000000	      0.00000000	      0.00000000	     81.08392085	    197.37441428	    -10.70946653	      1.76926921	      0.00000000	      0.98435170	      0.00000000	     -2.27652132	      0.00000000
      7.51200000	      0.00000000	      0.00000000	      0.00000000	      0.00000000	      0.00000000	      0.00000000	      0.00000000	      0.00000000	      0.00000000	     79.48428316	    190.27955490	    -10.28935252	      1.76815428	      0.00000000	      0.98449453	      0.00000000	     -2.33053096	      0.00000000
      7.51300000	      0.00000000	      0.00000000	      0.00000000	      0.00000000	      0.00000000	      0.00000000	      0.00000000	      0.00000000	      0.00000000	     77.88464547	    183.18469552	     -9.86923851	      1.76703935	      0.00000000	      0.98463736	      0.00000000	     -2.38454060	      0.00000000
      7.51400000	      0.00000000	      0.00000000	      0.00000000	      0.00000000	      0.00000000	      0.00000000	      0.00000000	      0.00000000	      0.00000000	     76.30301367	    176.35864579	     -9.43265275	      1.76599934	      0.00000000	      0.98477655	      0.00000000	     -2.43712343	      0.00000000
      7.51500000	      0.00000000	      0.00000000	      0.00000000	      0.00000000	      0.00000000	      0.00000000	      0.00000000	      0.00000000	      0.00000000	     74.73038482	    169.66700089	     -8.98783111	      1.76499679	      0.00000000	      0.98491392	      0.00000000	     -2.48899285	      0.00000000
      7.51600000	      0.00000000	      0.00000000	      0.00000000	      0.00000000	      0.00000000	      0.00000000	      0.00000000	      0.00000000	      0.00000000	     73.15775597	    162.97535598	     -8.54300947	      1.76399423	      0.00000000	      0.98505130	      0.00000000	     -2.54086227	      0.00000000
      7.51700000	      0.00000000	      0.00000000	      0.00000000	      0.00000000	      0.00000000	      0.00000000	      0.00000000	      0.00000000	      0.00000000	     71.60134752	    156.42787311	     -8.09398899	      1.76302867	      0.00000000	      0.98518669	      0.00000000	     -2.59215917	      0.00000000
      7.51800000	      0.00000000	      0.00000000	      0.00000000	      0.00000000	      0.00000000	      0.00000000	      0.00000000	      0.00000000	      0.00000000	     70.07737987	    150.16871433	     -7.63657082	      1.76213707	      0.00000000	      0.98531814	      0.00000000	     -2.64231101	      0.00000000
      7.51900000	      0.00000000	      0.00000000	      0.00000000	      0.00000000	      0.00000000	      0.00000000	      0.00000000	      0.00000000	      0.00000000	     68.55341221	    143.90955555	     -7.17915264	      1.76124547	      0.00000000	      0.98544959	      0.00000000	     -2.69246286	      0.00000000
      7.52000000	      0.00000000	      0.00000000	      0.00000000	      0.00000000	      0.00000000	      0.00000000	      0.00000000	      0.00000000	      0.00000000	     67.02944456	    137.65039676	     -6.72173447	      1.76035387	      0.00000000	      0.98558104	      0.00000000	     -2.74261470	      0.00000000
      7.52100000	      0.00000000	      0.00000000	      0.00000000	      0.00000000	      0.00000000	      0.00000000	      0.00000000	      0.00000000	      0.00000000	     65.57397628	    131.84976133	     -6.26316834	      1.75957022	      0.00000000	      0.98570593	      0.00000000	     -2.79123679	      0.00000000
      7.52200000	      0.00000000	      0.00000000	      0.00000000	      0.00000000	      0.00000000	      0.00000000	      0.00000000	      0.00000000	      0.00000000	     64.11850800	    126.04912590	     -5.80460221	      1.75878657	      0.00000000	      0.98583083	     -0.00000000	     -2.83985888	      0.00000000
      7.52300000	      0.00000000	      0.00000000	      0.00000000	      0.00000000	      0.00000000	      0.00000000	      0.00000000	      0.00000000	      0.00000000	     62.66303971	    120.24849047	     -5.34603607	      1.75800292	      0.00000000	      0.98595573	     -0.00000000	     -2.88848097	      0.00000000
      7.52400000	      0.00000000	      0.00000000	      0.00000000	      0.00000000	      0.00000000	      0.00000000	      0.00000000	      0.00000000	      0.00000000	     61.26495233	    114.76805262	     -4.89374048	      1.75728825	      0.00000000	      0.98607577	     -0.00000000	     -2.93605695	      0.00000000
      7.52500000	      0.00000000	      0.00000000	      0.00000000	      0.00000000	      0.00000000	      0.00000000	      0.00000000	      0.00000000	      0.00000000	     59.89555540	    109.44771356	     -4.44458017	      1.75660805	      0.00000000	      0.98619338	     -0.00000000	     -2.98310986	      0.00000000
      7.52600000	      0.00000000	      0.00000000	      0.00000000	      0.00000000	      0.00000000	      0.00000000	      0.00000000	      0.00000000	      0.00000000	     58.52615847	    104.12737450	     -3.99541985	      1.75592786	      0.00000000	      0.98631100	     -0.00000000	     -3.03016277	      0.00000000
      7.52700000	      0.00000000	      0.00000000	      0.00000000	      0.00000000	      0.00000000	      0.00000000	      0.00000000	      0.00000000	      0.00000000	     57.19041713	     98.97263288	     -3.55254139	      1.75528021	      0.00000000	      0.98642592	     -0.00000000	     -3.07661243	      0.00000000
      7.52800000	      0.00000000	      0.00000000	      0.00000000	      0.00000000	      0.00000000	      0.00000000	      0.00000000	      0.00000000	      0.00000000	     55.92198698	     94.14908613	     -3.12222664	      1.75469764	      0.00000000	      0.98653546	     -0.00000000	     -3.12185558	      0.00000000
